<?xml version="1.0" encoding="UTF-8" standalone="no"?>
<svg xmlns="http://www.w3.org/2000/svg" xmlns:xlink="http://www.w3.org/1999/xlink" width="297mm" height="210mm" version="1.0">
  <defs>
    <linearGradient id="e">
      <stop offset="0"/>
      <stop offset="1" stop-opacity="0"/>
    </linearGradient>
    <linearGradient id="b">
      <stop offset="0" stop-color="#a00"/>
      <stop offset="1" stop-color="#a00" stop-opacity="0"/>
    </linearGradient>
    <linearGradient id="a">
      <stop offset="0" stop-color="#faa"/>
      <stop offset="1" stop-color="#faa" stop-opacity="0"/>
    </linearGradient>
    <linearGradient id="d">
      <stop offset="0" stop-color="#ff8080"/>
      <stop offset="1" stop-color="#ff8080" stop-opacity="0"/>
    </linearGradient>
    <linearGradient id="c">
      <stop offset="0" stop-color="#a00"/>
      <stop offset="1" stop-color="#a00" stop-opacity="0"/>
    </linearGradient>
    <linearGradient xlink:href="#a" id="h" x1="598.30402" x2="1028.7482" y1="264.64075" y2="692.64081" gradientTransform="translate(-168 6)" gradientUnits="userSpaceOnUse"/>
    <linearGradient xlink:href="#b" id="g" x1="777.63275" x2="257.41934" y1="445.97461" y2="-82.025352" gradientTransform="translate(-168 6)" gradientUnits="userSpaceOnUse"/>
    <radialGradient xlink:href="#c" id="j" cx="760.44836" cy="495.57962" r="290.55002" fx="760.44836" fy="495.57962" gradientTransform="matrix(-.00923 -1.65678 1.72595 -.00962 -186.23057 1798.1152)" gradientUnits="userSpaceOnUse"/>
    <radialGradient xlink:href="#d" id="i" cx="510.63492" cy="518.68848" r="309.09372" fx="510.63492" fy="518.68848" gradientTransform="matrix(.07145 1.21397 -1.37075 .08068 1034.03 -441.76903)" gradientUnits="userSpaceOnUse"/>
    <radialGradient xlink:href="#e" id="f" cx="358" cy="694.76117" r="283.33334" fx="358" fy="694.76117" gradientTransform="matrix(1 0 0 .06762 -.0000512 647.78419)" gradientUnits="userSpaceOnUse"/>
  </defs>
  <path fill="url(#f)" d="M641.33334 694.76117a283.33334 16 0 1 1-566.666684 0 283.33334 16 0 1 1 566.666684 0z" transform="matrix(1.39059 0 0 3.16667 29.028818 -1516.6492)"/>
  <path fill="url(#f)" d="M641.33334 694.76117a283.33334 16 0 1 1-566.666684 0 283.33334 16 0 1 1 566.666684 0z" transform="matrix(1.39059 0 0 3.16667 29.028818 -1516.6492)"/>
  <path fill="url(#g)" d="M290.82958 127.28916c-131.38826 131.38824-131.36616 344.64931.02209 476.03755s344.62723 131.38824 476.01546 0c131.38817-131.38826 131.41037-344.64935.02213-476.03759-131.38824-131.388242-344.67144-131.388208-476.05968.00004zm55.57417 148.47033L618.3747 547.73044c-75.85814 37.20062-170.14031 24.26986-233.19056-38.78039-63.05057-63.05057-75.98171-157.33222-38.78039-233.19056zm92.89616-92.89616c75.86339-37.21914 170.17601-24.32255 233.23476 38.7362 63.05844 63.05847 75.95471 157.37154 38.73619 233.23475L439.29991 182.86333z"/>
  <path fill="url(#h)" d="M303.45097 139.9097c-126.3721 126.3721-127.93416 329.90796-3.51279 454.32932 124.42137 124.42137 327.93632 122.83839 454.3084-3.5337 126.37202-126.37211 127.97632-329.90833 3.55499-454.32969-124.42135-124.421356-327.97851-122.838018-454.3506 3.53407zm40.66195 118.69781 291.41494 291.41494c-116.05962 51.24409-196.46502 24.46408-256.17201-35.24292-59.70732-59.70732-93.53739-149.18128-35.24293-256.17202zm79.45007-79.45007c95.89374-51.23926 195.08526-23.10042 254.80031 36.61463 59.71476 59.71478 89.87489 154.87027 36.61463 254.80031L423.56299 179.15744z"/>
  <path fill="url(#i)" d="M312.53845 148.99643c-121.91331 121.9133-123.92849 317.75954-4.52327 437.16475 119.40522 119.40521 315.2314 117.36995 437.14468-4.54334 121.91324-121.91331 123.96904-317.76 4.56387-437.16521-119.40521-119.405206-315.27199-117.369497-437.18528 4.5438zm28.92676 95.72399L649.41579 552.671c-151.17901 66.76366-218.79879 25.44794-276.09866-31.85192-57.30016-57.30017-105.37663-139.68605-31.85192-276.09866zm68.16154-68.16154c117.6399-64.68892 217.46776-24.13236 274.77535 33.17523 57.3073 57.30733 100.82859 140.12083 33.17523 274.77535L409.62675 176.55888z"/>
  <path fill="url(#j)" d="M255.54721 518.21185c13.41003 24.51251 30.45376 47.51271 51.15476 68.21371 119.40523 119.4052 315.23339 117.38339 437.14667-4.52991C865.7619 459.98234 867.8279 264.11 748.42274 144.70479c-20.7012-20.7012-43.722-37.72359-68.23581-51.13266-5.80527 31.20467-14.416 61.98923-25.83149 91.94598 10.494 7.57811 20.1043 15.86166 28.74831 24.50567 57.3073 57.30733 106.17652 157.43399 33.18982 274.75518L566.78468 335.27007c-10.39748 12.50111-21.44552 24.6275-33.16772 36.34971-11.25516 11.25516-22.89426 21.91849-34.86921 31.95238l149.37631 149.37631c-128.51234 66.76367-218.80323 25.45796-276.1031-31.8419-8.83131-8.83131-17.45206-18.26571-25.43375-28.39476-29.67249 11.24341-60.14877 19.75462-91.04 25.50004z"/>
</svg>